<svg xmlns="http://www.w3.org/2000/svg" width="800" height="800" fill="#ffc107" viewBox="0 0 56 56"><path d="M8.746 37.703h7.149l-2.133 10.594c-.047.234-.07.516-.07.75 0 1.148.796 1.781 1.898 1.781 1.125 0 1.945-.61 2.18-1.758l2.296-11.367h11.086L29.02 48.297c-.07.234-.093.516-.093.75 0 1.148.797 1.781 1.922 1.781s1.945-.61 2.18-1.758L35.3 37.703h8.367c1.289 0 2.18-.937 2.18-2.203 0-1.031-.703-1.875-1.758-1.875h-7.946L38.63 21.25h8.203c1.29 0 2.18-.938 2.18-2.203 0-1.031-.703-1.875-1.758-1.875h-7.805l1.922-9.446c.023-.14.07-.445.07-.75 0-1.148-.82-1.804-1.945-1.804-1.312 0-1.898.726-2.133 1.828l-2.062 10.172H24.215l1.922-9.446c.023-.14.07-.445.07-.75 0-1.148-.844-1.804-1.945-1.804-1.336 0-1.946.726-2.157 1.828l-2.062 10.172h-7.688c-1.289 0-2.18.984-2.18 2.273 0 1.055.704 1.805 1.759 1.805h7.289l-2.485 12.375h-7.57c-1.29 0-2.18.984-2.18 2.273 0 1.055.703 1.805 1.758 1.805Zm12.14-4.078 2.509-12.375H34.48l-2.507 12.375Z"/></svg>